<svg xmlns="http://www.w3.org/2000/svg" width="43.192" height="34.349" viewBox="0 0 43.192 34.349">
  <g id="Grupo_188" data-name="Grupo 188" transform="translate(-868 -2111.953)">
    <g id="União_3" data-name="União 3" transform="translate(868 2121.375)" fill="none">
      <path d="M19.084,8.5a8.618,8.618,0,0,1,.1-1.307H16.816a8.6,8.6,0,0,1,.1,1.307A8.458,8.458,0,1,1,8.458,0H27.542a8.5,8.5,0,1,1-8.458,8.5Z" stroke="none"/>
      <path d="M 8.457740783691406 3 C 5.448329925537109 3 3 5.467209815979004 3 8.49983024597168 C 3 11.53262996673584 5.448329925537109 14 8.457740783691406 14 C 11.46730041503906 14 13.91575050354004 11.53262996673584 13.91575050354004 8.49983024597168 C 13.91575050354004 8.213809967041016 13.89399909973145 7.927260398864746 13.85108947753906 7.648139953613281 L 13.31991004943848 4.192370414733887 L 16.81627082824707 4.192370414733887 L 19.18372917175293 4.192370414733887 L 22.67903900146484 4.192370414733887 L 22.14904022216797 7.647259712219238 C 22.10614013671875 7.926959991455078 22.08438110351563 8.213800430297852 22.08438110351563 8.49983024597168 C 22.08438110351563 11.53262996673584 24.53264999389648 14 27.54199028015137 14 C 30.55154991149902 14 33 11.53262996673584 33 8.49983024597168 C 33 5.467209815979004 30.55154991149902 3 27.54199028015137 3 L 8.457740783691406 3 M 8.457740783691406 0 L 27.54199028015137 0 C 32.21311187744141 0 36 3.80543041229248 36 8.49983024597168 C 36 13.1942195892334 32.21311187744141 17 27.54199028015137 17 C 22.87126922607422 17 19.08437919616699 13.1942195892334 19.08437919616699 8.49983024597168 C 19.08437919616699 8.055139541625977 19.11833953857422 7.618630409240723 19.18372917175293 7.192370414733887 L 16.81627082824707 7.192370414733887 C 16.88179016113281 7.618630409240723 16.91575050354004 8.055139541625977 16.91575050354004 8.49983024597168 C 16.91575050354004 13.1942195892334 13.12886047363281 17 8.457740783691406 17 C 3.78662109375 17 0 13.1942195892334 0 8.49983024597168 C 0 3.80543041229248 3.78662109375 0 8.457740783691406 0 Z" stroke="none" fill="#00c5b5"/>
    </g>
    <path id="Caminho_20" data-name="Caminho 20" d="M-5264,2126.6v5.04a1.117,1.117,0,0,0,.332.876,2.261,2.261,0,0,0,1.159.255h11.886s5.192.224,7.717-1.319,2.383-4.853,2.383-4.853v-26.65" transform="translate(6150.211 12)" fill="none" stroke="#00c5b5" stroke-width="3"/>
  </g>
</svg>
