<svg xmlns="http://www.w3.org/2000/svg" width="1920" height="437.98" viewBox="0 0 1920 437.98">
  <path id="Subtração_2" data-name="Subtração 2" d="M1419.518,521.3c-23.3,0-46.635-.628-69.361-1.866-21.652-1.18-43.464-2.953-64.83-5.27-20.191-2.19-40.691-4.943-60.932-8.183-18.91-3.027-38.311-6.6-57.665-10.605-18.023-3.734-36.023-7.835-55.029-12.536-16.937-4.19-34.282-8.761-53.025-13.976-34.826-9.689-69.261-20.171-102.562-30.307-32.662-9.942-66.437-20.222-100.36-29.682-18.256-5.091-35.108-9.548-51.52-13.627-18.419-4.577-35.825-8.566-53.213-12.195-18.662-3.895-37.337-7.359-55.506-10.3-19.43-3.142-39.078-5.81-58.4-7.932-20.423-2.243-41.246-3.96-61.891-5.1-21.645-1.2-43.845-1.8-65.983-1.8-22.36,0-44.634.466-66.205,1.385-20.635.879-41.177,2.2-61.057,3.913-36.982,3.2-73.034,7.894-107.152,13.965-57.46,10.225-110.568,24.483-157.848,42.377C98.408,426.588,80.7,434.2,64.35,442.191c-13.08,6.39-25.325,13.033-36.4,19.744C9.222,473.289.092,481.118,0,481.2L0,83.321H1920V426.03c-3.475,2.629-36.2,26.341-114.136,49.489-45.011,13.368-96.552,24-153.19,31.592-33.413,4.48-69.022,7.946-105.838,10.3C1506.458,519.993,1463.622,521.3,1419.518,521.3Z" transform="translate(0 -83.321)" fill="#e7f3f5"/>
</svg>
