<svg id="Grupo_425" data-name="Grupo 425" xmlns="http://www.w3.org/2000/svg" width="129.877" height="12.622" viewBox="0 0 129.877 12.622">
  <g id="Grupo_423" data-name="Grupo 423" transform="translate(0 0)">
    <path id="Caminho_41" data-name="Caminho 41" d="M127.676,116.75c-3.625,0-5.324-1.558-7.475-3.53-2.4-2.2-5.113-4.688-10.45-4.688s-8.054,2.491-10.451,4.688c-2.151,1.973-3.85,3.53-7.475,3.53s-5.324-1.558-7.475-3.53c-2.4-2.2-5.113-4.688-10.45-4.688s-8.054,2.491-10.45,4.688c-2.151,1.973-3.85,3.53-7.474,3.53s-5.323-1.558-7.474-3.53c-2.4-2.2-5.112-4.688-10.45-4.688S30,111.022,27.6,113.219c-2.151,1.973-3.85,3.53-7.474,3.53s-5.324-1.558-7.474-3.53c-2.4-2.2-5.113-4.688-10.45-4.688a2.2,2.2,0,1,0,0,4.4c3.625,0,5.324,1.558,7.474,3.53,2.4,2.2,5.113,4.688,10.45,4.688s8.054-2.491,10.45-4.688c2.151-1.972,3.85-3.53,7.474-3.53s5.323,1.558,7.474,3.53c2.4,2.2,5.112,4.688,10.45,4.688s8.054-2.49,10.45-4.688c2.151-1.972,3.85-3.531,7.474-3.531s5.324,1.558,7.474,3.53c2.4,2.2,5.113,4.688,10.45,4.688s8.054-2.49,10.45-4.688c2.151-1.973,3.85-3.53,7.475-3.53s5.324,1.558,7.475,3.53c2.4,2.2,5.113,4.688,10.45,4.688a2.2,2.2,0,0,0,0-4.4Z" transform="translate(-0.001 -108.531)" fill="#00c5b5"/>
  </g>
</svg>
